<svg width="48" height="48" viewBox="0 0 48 48" fill="none" xmlns="http://www.w3.org/2000/svg">
<path d="M40.5 9.0011H7.5C6.67157 9.0011 6 9.67267 6 10.5011V37.5011C6 38.3295 6.67157 39.0011 7.5 39.0011H40.5C41.3284 39.0011 42 38.3295 42 37.5011V10.5011C42 9.67267 41.3284 9.0011 40.5 9.0011Z" stroke="black" stroke-linecap="round" stroke-linejoin="round"/>
<path d="M14.1875 15.7511C14.1875 16.545 13.5439 17.1886 12.75 17.1886C11.9561 17.1886 11.3125 16.545 11.3125 15.7511C11.3125 14.9572 11.9561 14.3136 12.75 14.3136C13.5439 14.3136 14.1875 14.9572 14.1875 15.7511Z" fill="black" stroke="black" stroke-width="0.125"/>
<path d="M21.6875 15.7511C21.6875 16.545 21.0439 17.1886 20.25 17.1886C19.4561 17.1886 18.8125 16.545 18.8125 15.7511C18.8125 14.9572 19.4561 14.3136 20.25 14.3136C21.0439 14.3136 21.6875 14.9572 21.6875 15.7511Z" fill="black" stroke="black" stroke-width="0.125"/>
</svg>
