<svg width="48" height="48" viewBox="0 0 48 48" fill="none" xmlns="http://www.w3.org/2000/svg">
<path d="M34.5015 15H7.50146C6.67304 15 6.00146 15.6716 6.00146 16.5V37.5C6.00146 38.3284 6.67304 39 7.50146 39H34.5015C35.3299 39 36.0015 38.3284 36.0015 37.5V16.5C36.0015 15.6716 35.3299 15 34.5015 15Z" stroke="black" stroke-linecap="round" stroke-linejoin="round"/>
<path d="M12.0015 15V10.5C12.0015 10.1022 12.1595 9.72064 12.4408 9.43934C12.7221 9.15804 13.1036 9 13.5015 9H40.5015C40.8993 9 41.2808 9.15804 41.5621 9.43934C41.8434 9.72064 42.0015 10.1022 42.0015 10.5V31.5C42.0015 31.8978 41.8434 32.2793 41.5621 32.5607C41.2808 32.842 40.8993 33 40.5015 33H36.0015" stroke="black" stroke-linecap="round" stroke-linejoin="round"/>
<path d="M6 21H36" stroke="black" stroke-linecap="round" stroke-linejoin="round"/>
</svg>
